<?xml version="1.0" standalone="no"?>
<!DOCTYPE svg PUBLIC "-//W3C//DTD SVG 20010904//EN"
 "http://www.w3.org/TR/2001/REC-SVG-20010904/DTD/svg10.dtd">
<svg version="1.0" xmlns="http://www.w3.org/2000/svg"
 width="441.000000pt" height="441.000000pt" viewBox="0 0 441.000000 441.000000"
 preserveAspectRatio="xMidYMid meet">
<metadata>
Created by potrace 1.14, written by Peter Selinger 2001-2017
</metadata>
<g transform="translate(0.000000,441.000000) scale(0.100000,-0.100000)"
fill="#000000" stroke="none">
<path d="M0 2205 l0 -2205 2205 0 2205 0 0 2205 0 2205 -2205 0 -2205 0 0
-2205z m780 225 l0 -1040 510 0 510 0 0 -250 0 -250 -780 0 -780 0 0 1290 0
1290 270 0 270 0 0 -1040z m2632 1008 c136 -37 247 -97 336 -182 60 -58 81
-86 117 -160 50 -105 65 -167 65 -271 0 -139 -34 -238 -118 -337 -56 -67 -88
-94 -162 -137 -52 -29 -54 -32 -30 -38 14 -4 65 -27 115 -52 73 -36 107 -62
181 -135 75 -75 99 -106 133 -176 90 -185 95 -414 14 -620 -33 -84 -72 -140
-151 -217 -108 -107 -302 -186 -522 -213 -49 -6 -322 -10 -657 -10 l-573 0 0
1291 0 1290 578 -3 577 -4 97 -26z"/>
<path d="M2700 2740 l0 -262 248 4 247 3 57 28 c101 50 141 119 140 240 -1
108 -56 182 -164 221 -45 16 -90 19 -290 23 l-238 5 0 -262z"/>
<path d="M2700 1700 l0 -340 223 0 c337 0 433 15 532 79 112 74 157 268 95
409 -40 90 -108 140 -235 172 -69 18 -111 20 -347 20 l-268 0 0 -340z"/>
</g>
</svg>
